
<svg xmlns="http://www.w3.org/2000/svg" id="Layer_1" viewBox="0 0 944 175.4">
<path fill="#42b585" d="M683.1 0s-87.2 0-87.2 87.2v81.6c0 3.6 2.9 6.6 6.6 6.6H684s87.2 0 87.2-87.2V6.6c0-3.6-2.9-6.6-6.6-6.6h-81.5z"/>
<path fill="#fff" d="M741.1 72v11.9h-9.7V72c0-.7-.6-1.2-1.2-1.2h-5c-.7 0-1.2.6-1.2 1.2v11.9h-71.9c-1.7-7.6-8.6-13.3-16.8-13.2-9.2.1-16.6 7.6-16.7 16.8-.1 9.4 7.5 17.1 16.9 17.1 8.1 0 14.8-5.6 16.5-13.2h95.4c.7 0 1.2-.6 1.2-1.2V72c0-.7-.6-1.2-1.2-1.2h-5c-.8 0-1.3.5-1.3 1.2zM635.4 97.9c-5.6 0-10.2-4.5-10.2-10.2 0-5.6 4.5-10.2 10.2-10.2s10.2 4.5 10.2 10.2c0 5.6-4.6 10.2-10.2 10.2z"/>
<g>
<path d="M440.1 118.7v-62h-9.2v31l-28.7-31h-8.6v62h8.6V70l28.6 31.7v17zM540.8 119.3V57.4h-9.3v26.2h-28V57.4h-9.2v61.9h9.2V92.7h28v26.6zM851 103.6c0-10.2-8.4-15.4-18.4-20.5-6.1-3-9.7-4.7-9.7-9.9 0-4 3.5-6.7 8.4-6.7 4.5 0 7.9 3.3 8.3 8.1l.1 1.1h9.3l-.1-1.2c-.5-9.8-8-16.9-17.7-16.9-10.1 0-17.7 6.6-17.7 15.4 0 9.5 6.2 13.5 16.3 18.9 7.4 3.7 11.9 6.4 11.9 11.5 0 4.4-3.8 7.2-9.6 7.2-4.5 0-10-2.5-10.4-9.3l-.1-1.1h-9.3l.1 1.2c.5 10.5 8.8 18.1 19.7 18.1 11.1 0 18.9-6.5 18.9-15.9zM944 119.5v-9.2h-29.2V92.1h17.8v-9.2h-17.8V66.8H944v-9.2h-38.7v61.9zM339.3 119.5v-9.2h-29.1V92.1h17.7v-9.2h-17.7V66.8h29.1v-9.2h-38.7v61.9zM246.3 119.5v-9.2h-29.1V92.1h17.7v-9.2h-17.7V66.8h29.1v-9.2h-38.7v61.9zM153.3 110.4h-8.9c-1.1 0-2.3-1.1-3.1-3l-4.1-8.1c7.9-2.9 12.6-10.4 12.6-20.3 0-12.5-8.3-21.5-19.8-21.5h-23l-.1 61.9h8.7v-18.9h10.8c1.2.1 2.4 1.3 3.1 3.1l3.8 8.2c2.2 4.8 6.3 7.7 11 7.7h8.9l.1-9.1zM130 92l-14-.1V66.2h14c7 0 10.8 6.7 10.8 12.9 0 6.4-4 12.9-10.8 12.9zM42.7 88.5v19.9c-3.3 1.1-6.7 1.7-11 1.7-13.1 0-21.8-8.6-21.8-21.5 0-12.8 9.2-21.4 22.9-21.4 4.5 0 8.8.9 12.6 2.5l3.3-9.1c-4.4-2-9.7-3-15.7-3-18.9 0-33 13.3-33 31.1 0 17.6 13.6 30.9 31.5 30.9 8.3 0 13.9-1.4 21.1-5.3V88.5h-9.9z" class="st2"/>
</g>
</svg>
